solid OpenSCAD_Model
  facet normal -1 0 0
    outer loop
      vertex 15.5 9.1 36
      vertex 15.5 18 20.1
      vertex 15.5 9.1 20.1
    endloop
  endfacet
  facet normal -1 0 0
    outer loop
      vertex 15.5 18 20.1
      vertex 15.5 9.1 36
      vertex 15.5 18 44.9
    endloop
  endfacet
  facet normal 1 -0 0
    outer loop
      vertex 35.3 9.1 36
      vertex 35.3 18 20.1
      vertex 35.3 18 44.9
    endloop
  endfacet
  facet normal 1 0 0
    outer loop
      vertex 35.3 18 20.1
      vertex 35.3 9.1 36
      vertex 35.3 9.1 20.1
    endloop
  endfacet
  facet normal 0 1 -0
    outer loop
      vertex 35.3 18 20.1
      vertex 15.5 18 44.9
      vertex 35.3 18 44.9
    endloop
  endfacet
  facet normal 0 1 0
    outer loop
      vertex 15.5 18 44.9
      vertex 35.3 18 20.1
      vertex 15.5 18 20.1
    endloop
  endfacet
  facet normal 0 0 -1
    outer loop
      vertex 15.5 9.1 20.1
      vertex 35.3 18 20.1
      vertex 35.3 9.1 20.1
    endloop
  endfacet
  facet normal -0 0 -1
    outer loop
      vertex 35.3 18 20.1
      vertex 15.5 9.1 20.1
      vertex 15.5 18 20.1
    endloop
  endfacet
  facet normal 0 -1 0
    outer loop
      vertex 15.5 9.1 20.1
      vertex 35.3 9.1 36
      vertex 15.5 9.1 36
    endloop
  endfacet
  facet normal 0 -1 -0
    outer loop
      vertex 35.3 9.1 36
      vertex 15.5 9.1 20.1
      vertex 35.3 9.1 20.1
    endloop
  endfacet
  facet normal 0 -0.707107 0.707107
    outer loop
      vertex 15.5 18 44.9
      vertex 35.3 9.1 36
      vertex 35.3 18 44.9
    endloop
  endfacet
  facet normal 0 -0.707107 0.707107
    outer loop
      vertex 35.3 9.1 36
      vertex 15.5 18 44.9
      vertex 15.5 9.1 36
    endloop
  endfacet
endsolid OpenSCAD_Model
