solid OpenSCAD_Model
  facet normal -1 0 0
    outer loop
      vertex 0 8.65 0
      vertex 0 0 0
      vertex 0 8.65 1.5
    endloop
  endfacet
  facet normal -1 0 0
    outer loop
      vertex 0 13.65 1.5
      vertex 0 14.4 0
      vertex 0 13.65 0
    endloop
  endfacet
  facet normal -1 0 0
    outer loop
      vertex 0 14.4 0
      vertex 0 13.65 1.5
      vertex 0 14.4 3.8
    endloop
  endfacet
  facet normal -1 0 0
    outer loop
      vertex 0 8.65 1.5
      vertex 0 14.4 3.8
      vertex 0 13.65 1.5
    endloop
  endfacet
  facet normal -1 0 0
    outer loop
      vertex 0 0 3.8
      vertex 0 8.65 1.5
      vertex 0 0 0
    endloop
  endfacet
  facet normal -1 0 0
    outer loop
      vertex 0 8.65 1.5
      vertex 0 0 3.8
      vertex 0 14.4 3.8
    endloop
  endfacet
  facet normal -1 0 0
    outer loop
      vertex 0 29.8 0
      vertex 0 21.15 2.3
      vertex 0 29.8 3.8
    endloop
  endfacet
  facet normal -1 0 0
    outer loop
      vertex 0 15.4 0
      vertex 0 21.15 2.3
      vertex 0 29.8 0
    endloop
  endfacet
  facet normal -1 -0 0
    outer loop
      vertex 0 21.15 2.3
      vertex 0 15.4 0
      vertex 0 16.15 2.3
    endloop
  endfacet
  facet normal -1 0 0
    outer loop
      vertex 0 15.4 3.8
      vertex 0 16.15 2.3
      vertex 0 15.4 0
    endloop
  endfacet
  facet normal -1 0 0
    outer loop
      vertex 0 16.15 2.3
      vertex 0 15.4 3.8
      vertex 0 16.15 3.8
    endloop
  endfacet
  facet normal -1 -0 0
    outer loop
      vertex 0 29.8 3.8
      vertex 0 21.15 2.3
      vertex 0 21.15 3.8
    endloop
  endfacet
  facet normal -0 0 1
    outer loop
      vertex 22.9227 8.65 3.8
      vertex 29.8 0 3.8
      vertex 29.8 8.65 3.8
    endloop
  endfacet
  facet normal -0 0 1
    outer loop
      vertex 21.7251 7.31992 3.8
      vertex 29.8 0 3.8
      vertex 22.9227 8.65 3.8
    endloop
  endfacet
  facet normal -0 0 1
    outer loop
      vertex 20 6.06654 3.8
      vertex 29.8 0 3.8
      vertex 21.7251 7.31992 3.8
    endloop
  endfacet
  facet normal 0 0 1
    outer loop
      vertex 15.4 0 3.8
      vertex 20 6.06654 3.8
      vertex 18.052 5.19922 3.8
    endloop
  endfacet
  facet normal 0 0 1
    outer loop
      vertex 15.4 0 3.8
      vertex 18.052 5.19922 3.8
      vertex 15.9662 4.75588 3.8
    endloop
  endfacet
  facet normal 0 0 1
    outer loop
      vertex 20 6.06654 3.8
      vertex 15.4 0 3.8
      vertex 29.8 0 3.8
    endloop
  endfacet
  facet normal 0 0 1
    outer loop
      vertex 15.4 0 3.8
      vertex 14.4 0 3.8
      vertex 15.4 -0.9 3.8
    endloop
  endfacet
  facet normal 0 0 1
    outer loop
      vertex 15.9662 4.75588 3.8
      vertex 14.4 0 3.8
      vertex 15.4 0 3.8
    endloop
  endfacet
  facet normal -0 0 1
    outer loop
      vertex 13.8338 4.75588 3.8
      vertex 14.4 0 3.8
      vertex 15.9662 4.75588 3.8
    endloop
  endfacet
  facet normal 0 0 1
    outer loop
      vertex 13.65 0 3.8
      vertex 13.8338 4.75588 3.8
      vertex 13.65 4.79495 3.8
    endloop
  endfacet
  facet normal 0 0 1
    outer loop
      vertex 13.8338 4.75588 3.8
      vertex 13.65 0 3.8
      vertex 14.4 0 3.8
    endloop
  endfacet
  facet normal 0 0 1
    outer loop
      vertex 15.4 -0.9 3.8
      vertex 14.4 0 3.8
      vertex 14.4 -0.9 3.8
    endloop
  endfacet
  facet normal 0 0 1
    outer loop
      vertex 15.4 30.7 3.8
      vertex 14.4 30.7 3.8
      vertex 15.4 29.8 3.8
    endloop
  endfacet
  facet normal 0 0 1
    outer loop
      vertex 16.15 29.8 3.8
      vertex 15.9662 25.0441 3.8
      vertex 16.15 25.0051 3.8
    endloop
  endfacet
  facet normal -0 0 1
    outer loop
      vertex 15.4 29.8 3.8
      vertex 15.9662 25.0441 3.8
      vertex 16.15 29.8 3.8
    endloop
  endfacet
  facet normal 0 0 1
    outer loop
      vertex 14.4 29.8 3.8
      vertex 15.4 29.8 3.8
      vertex 14.4 30.7 3.8
    endloop
  endfacet
  facet normal 0 0 1
    outer loop
      vertex 15.4 29.8 3.8
      vertex 14.4 29.8 3.8
      vertex 15.9662 25.0441 3.8
    endloop
  endfacet
  facet normal 0 0 1
    outer loop
      vertex 14.4 29.8 3.8
      vertex 13.8338 25.0441 3.8
      vertex 15.9662 25.0441 3.8
    endloop
  endfacet
  facet normal 0 0 1
    outer loop
      vertex 14.4 29.8 3.8
      vertex 11.748 24.6008 3.8
      vertex 13.8338 25.0441 3.8
    endloop
  endfacet
  facet normal 0 0 1
    outer loop
      vertex 14.4 29.8 3.8
      vertex 9.8 23.7335 3.8
      vertex 11.748 24.6008 3.8
    endloop
  endfacet
  facet normal -0 0 1
    outer loop
      vertex 0 29.8 3.8
      vertex 9.8 23.7335 3.8
      vertex 14.4 29.8 3.8
    endloop
  endfacet
  facet normal 0 0 1
    outer loop
      vertex 9.8 23.7335 3.8
      vertex 0 29.8 3.8
      vertex 8.07487 22.4801 3.8
    endloop
  endfacet
  facet normal 0 0 1
    outer loop
      vertex 8.07487 22.4801 3.8
      vertex 0 29.8 3.8
      vertex 6.87726 21.15 3.8
    endloop
  endfacet
  facet normal 0 0 1
    outer loop
      vertex 6.87726 21.15 3.8
      vertex 0 29.8 3.8
      vertex 0 21.15 3.8
    endloop
  endfacet
  facet normal 0 0 1
    outer loop
      vertex 4.83138 16.15 3.8
      vertex 0 16.15 3.8
      vertex 4.7 14.9 3.8
    endloop
  endfacet
  facet normal 0 0 1
    outer loop
      vertex 8.07487 7.31992 3.8
      vertex 8.65 0 3.8
      vertex 8.65 6.90206 3.8
    endloop
  endfacet
  facet normal 0 0 1
    outer loop
      vertex 0 0 3.8
      vertex 8.07487 7.31992 3.8
      vertex 6.64803 8.90459 3.8
    endloop
  endfacet
  facet normal 0 0 1
    outer loop
      vertex 0 0 3.8
      vertex 6.64803 8.90459 3.8
      vertex 5.58184 10.7513 3.8
    endloop
  endfacet
  facet normal 0 0 1
    outer loop
      vertex 0 14.4 3.8
      vertex 5.58184 10.7513 3.8
      vertex 4.92289 12.7793 3.8
    endloop
  endfacet
  facet normal -0 0 1
    outer loop
      vertex 0 15.4 3.8
      vertex 4.7 14.9 3.8
      vertex 0 16.15 3.8
    endloop
  endfacet
  facet normal 0 0 1
    outer loop
      vertex 0 14.4 3.8
      vertex 4.7 14.9 3.8
      vertex 0 15.4 3.8
    endloop
  endfacet
  facet normal 0 0 1
    outer loop
      vertex 4.7 14.9 3.8
      vertex 0 14.4 3.8
      vertex 4.92289 12.7793 3.8
    endloop
  endfacet
  facet normal 0 0 1
    outer loop
      vertex 5.58184 10.7513 3.8
      vertex 0 14.4 3.8
      vertex 0 0 3.8
    endloop
  endfacet
  facet normal 0 0 1
    outer loop
      vertex 8.07487 7.31992 3.8
      vertex 0 0 3.8
      vertex 8.65 0 3.8
    endloop
  endfacet
  facet normal -0 0 1
    outer loop
      vertex -0.9 15.4 3.8
      vertex 0 14.4 3.8
      vertex 0 15.4 3.8
    endloop
  endfacet
  facet normal 0 0 1
    outer loop
      vertex 0 14.4 3.8
      vertex -0.9 15.4 3.8
      vertex -0.9 14.4 3.8
    endloop
  endfacet
  facet normal -0 0 1
    outer loop
      vertex 24.2182 19.0487 3.8
      vertex 29.8 15.4 3.8
      vertex 29.8 29.8 3.8
    endloop
  endfacet
  facet normal -0 -0 1
    outer loop
      vertex 24.8771 17.0207 3.8
      vertex 29.8 15.4 3.8
      vertex 24.2182 19.0487 3.8
    endloop
  endfacet
  facet normal 0 -0 1
    outer loop
      vertex 25.1 14.9 3.8
      vertex 29.8 15.4 3.8
      vertex 24.8771 17.0207 3.8
    endloop
  endfacet
  facet normal 0 0 1
    outer loop
      vertex 29.8 14.4 3.8
      vertex 25.1 14.9 3.8
      vertex 29.8 13.65 3.8
    endloop
  endfacet
  facet normal 0 0 1
    outer loop
      vertex 29.8 15.4 3.8
      vertex 25.1 14.9 3.8
      vertex 29.8 14.4 3.8
    endloop
  endfacet
  facet normal 0 0 1
    outer loop
      vertex 29.8 29.8 3.8
      vertex 23.152 20.8954 3.8
      vertex 24.2182 19.0487 3.8
    endloop
  endfacet
  facet normal 0 0 1
    outer loop
      vertex 29.8 29.8 3.8
      vertex 21.7251 22.4801 3.8
      vertex 23.152 20.8954 3.8
    endloop
  endfacet
  facet normal -0 0 1
    outer loop
      vertex 21.15 29.8 3.8
      vertex 21.7251 22.4801 3.8
      vertex 29.8 29.8 3.8
    endloop
  endfacet
  facet normal 0 0 1
    outer loop
      vertex 21.7251 22.4801 3.8
      vertex 21.15 29.8 3.8
      vertex 21.15 22.8979 3.8
    endloop
  endfacet
  facet normal -0 0 1
    outer loop
      vertex 29.8 15.4 3.8
      vertex 30.7 14.4 3.8
      vertex 30.7 15.4 3.8
    endloop
  endfacet
  facet normal 0 0 1
    outer loop
      vertex 30.7 14.4 3.8
      vertex 29.8 15.4 3.8
      vertex 29.8 14.4 3.8
    endloop
  endfacet
  facet normal 0 0 1
    outer loop
      vertex 29.8 13.65 3.8
      vertex 25.1 14.9 3.8
      vertex 24.9686 13.65 3.8
    endloop
  endfacet
  facet normal 1 0 0
    outer loop
      vertex 29.8 8.65 3.8
      vertex 29.8 0 3.8
      vertex 29.8 8.65 2.3
    endloop
  endfacet
  facet normal 1 0 0
    outer loop
      vertex 29.8 13.65 2.3
      vertex 29.8 14.4 3.8
      vertex 29.8 13.65 3.8
    endloop
  endfacet
  facet normal 1 0 0
    outer loop
      vertex 29.8 14.4 3.8
      vertex 29.8 13.65 2.3
      vertex 29.8 14.4 0
    endloop
  endfacet
  facet normal 1 -0 0
    outer loop
      vertex 29.8 8.65 2.3
      vertex 29.8 14.4 0
      vertex 29.8 13.65 2.3
    endloop
  endfacet
  facet normal 1 0 0
    outer loop
      vertex 29.8 0 0
      vertex 29.8 8.65 2.3
      vertex 29.8 0 3.8
    endloop
  endfacet
  facet normal 1 0 0
    outer loop
      vertex 29.8 8.65 2.3
      vertex 29.8 0 0
      vertex 29.8 14.4 0
    endloop
  endfacet
  facet normal 1 0 0
    outer loop
      vertex 29.8 29.8 3.8
      vertex 29.8 21.15 1.5
      vertex 29.8 29.8 0
    endloop
  endfacet
  facet normal 1 -0 0
    outer loop
      vertex 29.8 15.4 3.8
      vertex 29.8 21.15 1.5
      vertex 29.8 29.8 3.8
    endloop
  endfacet
  facet normal 1 0 0
    outer loop
      vertex 29.8 21.15 1.5
      vertex 29.8 15.4 3.8
      vertex 29.8 16.15 1.5
    endloop
  endfacet
  facet normal 1 0 0
    outer loop
      vertex 29.8 15.4 0
      vertex 29.8 16.15 1.5
      vertex 29.8 15.4 3.8
    endloop
  endfacet
  facet normal 1 0 0
    outer loop
      vertex 29.8 16.15 1.5
      vertex 29.8 15.4 0
      vertex 29.8 16.15 0
    endloop
  endfacet
  facet normal 1 0 0
    outer loop
      vertex 29.8 29.8 0
      vertex 29.8 21.15 1.5
      vertex 29.8 21.15 0
    endloop
  endfacet
  facet normal 0 1 0
    outer loop
      vertex 29.8 29.8 3.8
      vertex 21.15 29.8 2.3
      vertex 21.15 29.8 3.8
    endloop
  endfacet
  facet normal 0 1 0
    outer loop
      vertex 15.4 29.8 0
      vertex 21.15 29.8 2.3
      vertex 29.8 29.8 0
    endloop
  endfacet
  facet normal 0 1 -0
    outer loop
      vertex 29.8 29.8 0
      vertex 21.15 29.8 2.3
      vertex 29.8 29.8 3.8
    endloop
  endfacet
  facet normal 0 1 -0
    outer loop
      vertex 16.15 29.8 2.3
      vertex 15.4 29.8 3.8
      vertex 16.15 29.8 3.8
    endloop
  endfacet
  facet normal 0 1 0
    outer loop
      vertex 16.15 29.8 2.3
      vertex 15.4 29.8 0
      vertex 15.4 29.8 3.8
    endloop
  endfacet
  facet normal 0 1 0
    outer loop
      vertex 21.15 29.8 2.3
      vertex 15.4 29.8 0
      vertex 16.15 29.8 2.3
    endloop
  endfacet
  facet normal 0 1 0
    outer loop
      vertex 8.65 29.8 1.5
      vertex 14.4 29.8 3.8
      vertex 13.65 29.8 1.5
    endloop
  endfacet
  facet normal 0 1 -0
    outer loop
      vertex 14.4 29.8 0
      vertex 13.65 29.8 1.5
      vertex 14.4 29.8 3.8
    endloop
  endfacet
  facet normal 0 1 0
    outer loop
      vertex 13.65 29.8 1.5
      vertex 14.4 29.8 0
      vertex 13.65 29.8 0
    endloop
  endfacet
  facet normal 0 1 0
    outer loop
      vertex 14.4 29.8 3.8
      vertex 8.65 29.8 1.5
      vertex 0 29.8 3.8
    endloop
  endfacet
  facet normal 0 1 0
    outer loop
      vertex 0 29.8 0
      vertex 8.65 29.8 1.5
      vertex 8.65 29.8 0
    endloop
  endfacet
  facet normal 0 1 0
    outer loop
      vertex 8.65 29.8 1.5
      vertex 0 29.8 0
      vertex 0 29.8 3.8
    endloop
  endfacet
  facet normal 0 0 -1
    outer loop
      vertex 22.9227 21.15 0
      vertex 29.8 29.8 0
      vertex 29.8 21.15 0
    endloop
  endfacet
  facet normal 0 0 -1
    outer loop
      vertex 21.7251 22.4801 0
      vertex 29.8 29.8 0
      vertex 22.9227 21.15 0
    endloop
  endfacet
  facet normal 0 0 -1
    outer loop
      vertex 20 23.7335 0
      vertex 29.8 29.8 0
      vertex 21.7251 22.4801 0
    endloop
  endfacet
  facet normal 0 0 -1
    outer loop
      vertex 15.4 29.8 0
      vertex 20 23.7335 0
      vertex 18.052 24.6008 0
    endloop
  endfacet
  facet normal 0 0 -1
    outer loop
      vertex 15.4 29.8 0
      vertex 18.052 24.6008 0
      vertex 15.9662 25.0441 0
    endloop
  endfacet
  facet normal 0 0 -1
    outer loop
      vertex 20 23.7335 0
      vertex 15.4 29.8 0
      vertex 29.8 29.8 0
    endloop
  endfacet
  facet normal 0 0 -1
    outer loop
      vertex 15.4 29.8 0
      vertex 14.4 29.8 0
      vertex 15.4 30.7 0
    endloop
  endfacet
  facet normal 0 0 -1
    outer loop
      vertex 15.9662 25.0441 0
      vertex 14.4 29.8 0
      vertex 15.4 29.8 0
    endloop
  endfacet
  facet normal 0 0 -1
    outer loop
      vertex 13.8338 25.0441 0
      vertex 14.4 29.8 0
      vertex 15.9662 25.0441 0
    endloop
  endfacet
  facet normal 0 0 -1
    outer loop
      vertex 13.65 29.8 0
      vertex 13.8338 25.0441 0
      vertex 13.65 25.0051 0
    endloop
  endfacet
  facet normal 0 0 -1
    outer loop
      vertex 13.8338 25.0441 0
      vertex 13.65 29.8 0
      vertex 14.4 29.8 0
    endloop
  endfacet
  facet normal -0 0 -1
    outer loop
      vertex 15.4 30.7 0
      vertex 14.4 29.8 0
      vertex 14.4 30.7 0
    endloop
  endfacet
  facet normal 0 0 -1
    outer loop
      vertex 15.4 -0.9 0
      vertex 14.4 -0.9 0
      vertex 15.4 0 0
    endloop
  endfacet
  facet normal 0 0 -1
    outer loop
      vertex 16.15 0 0
      vertex 15.9662 4.75588 0
      vertex 16.15 4.79495 0
    endloop
  endfacet
  facet normal 0 0 -1
    outer loop
      vertex 15.4 0 0
      vertex 15.9662 4.75588 0
      vertex 16.15 0 0
    endloop
  endfacet
  facet normal 0 0 -1
    outer loop
      vertex 14.4 0 0
      vertex 15.4 0 0
      vertex 14.4 -0.9 0
    endloop
  endfacet
  facet normal 0 0 -1
    outer loop
      vertex 15.4 0 0
      vertex 14.4 0 0
      vertex 15.9662 4.75588 0
    endloop
  endfacet
  facet normal 0 0 -1
    outer loop
      vertex 14.4 0 0
      vertex 13.8338 4.75588 0
      vertex 15.9662 4.75588 0
    endloop
  endfacet
  facet normal 0 0 -1
    outer loop
      vertex 14.4 0 0
      vertex 11.748 5.19922 0
      vertex 13.8338 4.75588 0
    endloop
  endfacet
  facet normal 0 0 -1
    outer loop
      vertex 14.4 0 0
      vertex 9.8 6.06654 0
      vertex 11.748 5.19922 0
    endloop
  endfacet
  facet normal 0 0 -1
    outer loop
      vertex 0 0 0
      vertex 9.8 6.06654 0
      vertex 14.4 0 0
    endloop
  endfacet
  facet normal -0 0 -1
    outer loop
      vertex 9.8 6.06654 0
      vertex 0 0 0
      vertex 8.07487 7.31992 0
    endloop
  endfacet
  facet normal -0 0 -1
    outer loop
      vertex 8.07487 7.31992 0
      vertex 0 0 0
      vertex 6.87726 8.65 0
    endloop
  endfacet
  facet normal -0 0 -1
    outer loop
      vertex 6.87726 8.65 0
      vertex 0 0 0
      vertex 0 8.65 0
    endloop
  endfacet
  facet normal 0 0 -1
    outer loop
      vertex 4.83138 13.65 0
      vertex 0 13.65 0
      vertex 4.7 14.9 0
    endloop
  endfacet
  facet normal 0 0 -1
    outer loop
      vertex 8.07487 22.4801 0
      vertex 8.65 29.8 0
      vertex 8.65 22.8979 0
    endloop
  endfacet
  facet normal 0 0 -1
    outer loop
      vertex 0 29.8 0
      vertex 8.07487 22.4801 0
      vertex 6.64803 20.8954 0
    endloop
  endfacet
  facet normal 0 0 -1
    outer loop
      vertex 0 29.8 0
      vertex 6.64803 20.8954 0
      vertex 5.58184 19.0487 0
    endloop
  endfacet
  facet normal 0 0 -1
    outer loop
      vertex 0 15.4 0
      vertex 5.58184 19.0487 0
      vertex 4.92289 17.0207 0
    endloop
  endfacet
  facet normal 0 0 -1
    outer loop
      vertex 0 14.4 0
      vertex 4.7 14.9 0
      vertex 0 13.65 0
    endloop
  endfacet
  facet normal 0 0 -1
    outer loop
      vertex 0 15.4 0
      vertex 4.7 14.9 0
      vertex 0 14.4 0
    endloop
  endfacet
  facet normal 0 0 -1
    outer loop
      vertex 4.7 14.9 0
      vertex 0 15.4 0
      vertex 4.92289 17.0207 0
    endloop
  endfacet
  facet normal -0 0 -1
    outer loop
      vertex 5.58184 19.0487 0
      vertex 0 15.4 0
      vertex 0 29.8 0
    endloop
  endfacet
  facet normal 0 0 -1
    outer loop
      vertex 8.07487 22.4801 0
      vertex 0 29.8 0
      vertex 8.65 29.8 0
    endloop
  endfacet
  facet normal 0 0 -1
    outer loop
      vertex -0.9 14.4 0
      vertex 0 15.4 0
      vertex 0 14.4 0
    endloop
  endfacet
  facet normal -0 0 -1
    outer loop
      vertex 0 15.4 0
      vertex -0.9 14.4 0
      vertex -0.9 15.4 0
    endloop
  endfacet
  facet normal 0 0 -1
    outer loop
      vertex 24.2182 10.7513 0
      vertex 29.8 14.4 0
      vertex 29.8 0 0
    endloop
  endfacet
  facet normal 0 -0 -1
    outer loop
      vertex 24.8771 12.7793 0
      vertex 29.8 14.4 0
      vertex 24.2182 10.7513 0
    endloop
  endfacet
  facet normal 0 -0 -1
    outer loop
      vertex 25.1 14.9 0
      vertex 29.8 14.4 0
      vertex 24.8771 12.7793 0
    endloop
  endfacet
  facet normal -0 0 -1
    outer loop
      vertex 29.8 15.4 0
      vertex 25.1 14.9 0
      vertex 29.8 16.15 0
    endloop
  endfacet
  facet normal 0 0 -1
    outer loop
      vertex 29.8 14.4 0
      vertex 25.1 14.9 0
      vertex 29.8 15.4 0
    endloop
  endfacet
  facet normal 0 0 -1
    outer loop
      vertex 29.8 0 0
      vertex 23.152 8.90459 0
      vertex 24.2182 10.7513 0
    endloop
  endfacet
  facet normal 0 0 -1
    outer loop
      vertex 29.8 0 0
      vertex 21.7251 7.31992 0
      vertex 23.152 8.90459 0
    endloop
  endfacet
  facet normal 0 0 -1
    outer loop
      vertex 21.15 0 0
      vertex 21.7251 7.31992 0
      vertex 29.8 0 0
    endloop
  endfacet
  facet normal 0 0 -1
    outer loop
      vertex 21.7251 7.31992 0
      vertex 21.15 0 0
      vertex 21.15 6.90206 0
    endloop
  endfacet
  facet normal 0 0 -1
    outer loop
      vertex 29.8 14.4 0
      vertex 30.7 15.4 0
      vertex 30.7 14.4 0
    endloop
  endfacet
  facet normal -0 0 -1
    outer loop
      vertex 30.7 15.4 0
      vertex 29.8 14.4 0
      vertex 29.8 15.4 0
    endloop
  endfacet
  facet normal -0 0 -1
    outer loop
      vertex 29.8 16.15 0
      vertex 25.1 14.9 0
      vertex 24.9686 16.15 0
    endloop
  endfacet
  facet normal 0 -1 0
    outer loop
      vertex 0 0 3.8
      vertex 8.65 0 2.3
      vertex 8.65 0 3.8
    endloop
  endfacet
  facet normal 0 -1 0
    outer loop
      vertex 14.4 0 0
      vertex 8.65 0 2.3
      vertex 0 0 0
    endloop
  endfacet
  facet normal 0 -1 0
    outer loop
      vertex 0 0 0
      vertex 8.65 0 2.3
      vertex 0 0 3.8
    endloop
  endfacet
  facet normal 0 -1 0
    outer loop
      vertex 13.65 0 2.3
      vertex 14.4 0 3.8
      vertex 13.65 0 3.8
    endloop
  endfacet
  facet normal 0 -1 0
    outer loop
      vertex 13.65 0 2.3
      vertex 14.4 0 0
      vertex 14.4 0 3.8
    endloop
  endfacet
  facet normal 0 -1 0
    outer loop
      vertex 8.65 0 2.3
      vertex 14.4 0 0
      vertex 13.65 0 2.3
    endloop
  endfacet
  facet normal 0 -1 0
    outer loop
      vertex 21.15 0 1.5
      vertex 15.4 0 3.8
      vertex 16.15 0 1.5
    endloop
  endfacet
  facet normal 0 -1 0
    outer loop
      vertex 15.4 0 0
      vertex 16.15 0 1.5
      vertex 15.4 0 3.8
    endloop
  endfacet
  facet normal 0 -1 -0
    outer loop
      vertex 16.15 0 1.5
      vertex 15.4 0 0
      vertex 16.15 0 0
    endloop
  endfacet
  facet normal 0 -1 0
    outer loop
      vertex 15.4 0 3.8
      vertex 21.15 0 1.5
      vertex 29.8 0 3.8
    endloop
  endfacet
  facet normal 0 -1 0
    outer loop
      vertex 29.8 0 0
      vertex 21.15 0 1.5
      vertex 21.15 0 0
    endloop
  endfacet
  facet normal 0 -1 0
    outer loop
      vertex 21.15 0 1.5
      vertex 29.8 0 0
      vertex 29.8 0 3.8
    endloop
  endfacet
  facet normal -1 0 0
    outer loop
      vertex -0.9 14.4 0
      vertex -0.9 15.4 3.8
      vertex -0.9 15.4 0
    endloop
  endfacet
  facet normal -1 -0 0
    outer loop
      vertex -0.9 15.4 3.8
      vertex -0.9 14.4 0
      vertex -0.9 14.4 3.8
    endloop
  endfacet
  facet normal 1 -0 0
    outer loop
      vertex 30.7 14.4 3.8
      vertex 30.7 15.4 0
      vertex 30.7 15.4 3.8
    endloop
  endfacet
  facet normal 1 0 0
    outer loop
      vertex 30.7 15.4 0
      vertex 30.7 14.4 3.8
      vertex 30.7 14.4 0
    endloop
  endfacet
  facet normal 0 1 -0
    outer loop
      vertex 30.7 15.4 0
      vertex 29.8 15.4 3.8
      vertex 30.7 15.4 3.8
    endloop
  endfacet
  facet normal 0 1 0
    outer loop
      vertex 29.8 15.4 3.8
      vertex 30.7 15.4 0
      vertex 29.8 15.4 0
    endloop
  endfacet
  facet normal 0 1 -0
    outer loop
      vertex 0 15.4 0
      vertex -0.9 15.4 3.8
      vertex 0 15.4 3.8
    endloop
  endfacet
  facet normal 0 1 0
    outer loop
      vertex -0.9 15.4 3.8
      vertex 0 15.4 0
      vertex -0.9 15.4 0
    endloop
  endfacet
  facet normal 0 -1 0
    outer loop
      vertex -0.9 14.4 0
      vertex 0 14.4 3.8
      vertex -0.9 14.4 3.8
    endloop
  endfacet
  facet normal 0 -1 -0
    outer loop
      vertex 0 14.4 3.8
      vertex -0.9 14.4 0
      vertex 0 14.4 0
    endloop
  endfacet
  facet normal 0 -1 0
    outer loop
      vertex 29.8 14.4 0
      vertex 30.7 14.4 3.8
      vertex 29.8 14.4 3.8
    endloop
  endfacet
  facet normal 0 -1 -0
    outer loop
      vertex 30.7 14.4 3.8
      vertex 29.8 14.4 0
      vertex 30.7 14.4 0
    endloop
  endfacet
  facet normal -1 0 0
    outer loop
      vertex 14.4 -0.9 0
      vertex 14.4 0 3.8
      vertex 14.4 0 0
    endloop
  endfacet
  facet normal -1 -0 0
    outer loop
      vertex 14.4 0 3.8
      vertex 14.4 -0.9 0
      vertex 14.4 -0.9 3.8
    endloop
  endfacet
  facet normal -1 0 0
    outer loop
      vertex 14.4 29.8 0
      vertex 14.4 30.7 3.8
      vertex 14.4 30.7 0
    endloop
  endfacet
  facet normal -1 -0 0
    outer loop
      vertex 14.4 30.7 3.8
      vertex 14.4 29.8 0
      vertex 14.4 29.8 3.8
    endloop
  endfacet
  facet normal 1 -0 0
    outer loop
      vertex 15.4 -0.9 3.8
      vertex 15.4 0 0
      vertex 15.4 0 3.8
    endloop
  endfacet
  facet normal 1 0 0
    outer loop
      vertex 15.4 0 0
      vertex 15.4 -0.9 3.8
      vertex 15.4 -0.9 0
    endloop
  endfacet
  facet normal 1 -0 0
    outer loop
      vertex 15.4 29.8 3.8
      vertex 15.4 30.7 0
      vertex 15.4 30.7 3.8
    endloop
  endfacet
  facet normal 1 0 0
    outer loop
      vertex 15.4 30.7 0
      vertex 15.4 29.8 3.8
      vertex 15.4 29.8 0
    endloop
  endfacet
  facet normal 0 1 -0
    outer loop
      vertex 15.4 30.7 0
      vertex 14.4 30.7 3.8
      vertex 15.4 30.7 3.8
    endloop
  endfacet
  facet normal 0 1 0
    outer loop
      vertex 14.4 30.7 3.8
      vertex 15.4 30.7 0
      vertex 14.4 30.7 0
    endloop
  endfacet
  facet normal 0 -1 0
    outer loop
      vertex 14.4 -0.9 0
      vertex 15.4 -0.9 3.8
      vertex 14.4 -0.9 3.8
    endloop
  endfacet
  facet normal 0 -1 -0
    outer loop
      vertex 15.4 -0.9 3.8
      vertex 14.4 -0.9 0
      vertex 15.4 -0.9 0
    endloop
  endfacet
  facet normal -0.587786 -0.809016 -0
    outer loop
      vertex 20 23.7335 2.3
      vertex 20 23.7335 0
      vertex 21.15 22.8979 2.3
    endloop
  endfacet
  facet normal -0.587785 -0.809017 0
    outer loop
      vertex 21.15 22.8979 2.3
      vertex 21.7251 22.4801 3.8
      vertex 21.15 22.8979 3.8
    endloop
  endfacet
  facet normal -0.587785 -0.809017 0
    outer loop
      vertex 21.15 22.8979 2.3
      vertex 21.7251 22.4801 0
      vertex 21.7251 22.4801 3.8
    endloop
  endfacet
  facet normal -0.587786 -0.809017 -2.213e-07
    outer loop
      vertex 21.7251 22.4801 0
      vertex 21.15 22.8979 2.3
      vertex 20 23.7335 0
    endloop
  endfacet
  facet normal -0.994522 0.104528 0
    outer loop
      vertex 25.1 14.9 0
      vertex 24.9686 13.65 2.3
      vertex 25.1 14.9 3.8
    endloop
  endfacet
  facet normal -0.994522 0.104528 -3.35588e-07
    outer loop
      vertex 24.8771 12.7793 0
      vertex 24.9686 13.65 2.3
      vertex 25.1 14.9 0
    endloop
  endfacet
  facet normal -0.994522 0.104527 0
    outer loop
      vertex 24.9686 13.65 2.3
      vertex 24.8771 12.7793 0
      vertex 24.8771 12.7793 2.3
    endloop
  endfacet
  facet normal -0.994522 0.104528 0
    outer loop
      vertex 25.1 14.9 3.8
      vertex 24.9686 13.65 2.3
      vertex 24.9686 13.65 3.8
    endloop
  endfacet
  facet normal 0.207911 0.978148 0
    outer loop
      vertex 13.8338 4.75588 3.8
      vertex 13.65 4.79495 2.3
      vertex 13.65 4.79495 3.8
    endloop
  endfacet
  facet normal 0.207911 0.978148 -0
    outer loop
      vertex 13.8338 4.75588 0
      vertex 13.65 4.79495 2.3
      vertex 13.8338 4.75588 3.8
    endloop
  endfacet
  facet normal 0.207912 0.978148 9.61458e-08
    outer loop
      vertex 11.748 5.19922 0
      vertex 13.65 4.79495 2.3
      vertex 13.8338 4.75588 0
    endloop
  endfacet
  facet normal 0.207912 0.978148 0
    outer loop
      vertex 13.65 4.79495 2.3
      vertex 11.748 5.19922 0
      vertex 11.748 5.19922 2.3
    endloop
  endfacet
  facet normal -0.951056 -0.309017 0
    outer loop
      vertex 24.8771 17.0207 1.5
      vertex 24.2182 19.0487 3.8
      vertex 24.2182 19.0487 1.5
    endloop
  endfacet
  facet normal -0.951056 -0.309017 0
    outer loop
      vertex 24.2182 19.0487 3.8
      vertex 24.8771 17.0207 1.5
      vertex 24.8771 17.0207 3.8
    endloop
  endfacet
  facet normal 0.406737 -0.913545 0
    outer loop
      vertex 9.8 23.7335 1.5
      vertex 11.748 24.6008 3.8
      vertex 9.8 23.7335 3.8
    endloop
  endfacet
  facet normal 0.406737 -0.913545 0
    outer loop
      vertex 11.748 24.6008 3.8
      vertex 9.8 23.7335 1.5
      vertex 11.748 24.6008 1.5
    endloop
  endfacet
  facet normal 0.951056 -0.309017 0
    outer loop
      vertex 4.92289 17.0207 2.3
      vertex 5.58184 19.0487 0
      vertex 5.58184 19.0487 2.3
    endloop
  endfacet
  facet normal 0.951056 -0.309017 0
    outer loop
      vertex 5.58184 19.0487 0
      vertex 4.92289 17.0207 2.3
      vertex 4.92289 17.0207 0
    endloop
  endfacet
  facet normal -0.743144 0.669132 0
    outer loop
      vertex 23.152 8.90459 0
      vertex 22.9227 8.65 2.3
      vertex 23.152 8.90459 2.3
    endloop
  endfacet
  facet normal -0.743145 0.669131 -2.07475e-07
    outer loop
      vertex 21.7251 7.31992 0
      vertex 22.9227 8.65 2.3
      vertex 23.152 8.90459 0
    endloop
  endfacet
  facet normal -0.743145 0.669131 0
    outer loop
      vertex 21.7251 7.31992 3.8
      vertex 22.9227 8.65 2.3
      vertex 21.7251 7.31992 0
    endloop
  endfacet
  facet normal -0.743145 0.669131 0
    outer loop
      vertex 22.9227 8.65 2.3
      vertex 21.7251 7.31992 3.8
      vertex 22.9227 8.65 3.8
    endloop
  endfacet
  facet normal 0.951056 0.309017 0
    outer loop
      vertex 5.58184 10.7513 3.8
      vertex 4.92289 12.7793 1.5
      vertex 4.92289 12.7793 3.8
    endloop
  endfacet
  facet normal 0.951056 0.309017 0
    outer loop
      vertex 4.92289 12.7793 1.5
      vertex 5.58184 10.7513 3.8
      vertex 5.58184 10.7513 1.5
    endloop
  endfacet
  facet normal -0.866026 -0.5 0
    outer loop
      vertex 24.2182 19.0487 1.5
      vertex 23.152 20.8954 3.8
      vertex 23.152 20.8954 1.5
    endloop
  endfacet
  facet normal -0.866026 -0.5 0
    outer loop
      vertex 23.152 20.8954 3.8
      vertex 24.2182 19.0487 1.5
      vertex 24.2182 19.0487 3.8
    endloop
  endfacet
  facet normal -0.743145 -0.669131 -0
    outer loop
      vertex 22.9227 21.15 1.5
      vertex 21.7251 22.4801 0
      vertex 22.9227 21.15 0
    endloop
  endfacet
  facet normal -0.743145 -0.669131 0
    outer loop
      vertex 21.7251 22.4801 0
      vertex 22.9227 21.15 1.5
      vertex 21.7251 22.4801 3.8
    endloop
  endfacet
  facet normal -0.743145 -0.669131 -0
    outer loop
      vertex 23.152 20.8954 3.8
      vertex 22.9227 21.15 1.5
      vertex 23.152 20.8954 1.5
    endloop
  endfacet
  facet normal -0.743145 -0.669131 -6.99739e-08
    outer loop
      vertex 22.9227 21.15 1.5
      vertex 23.152 20.8954 3.8
      vertex 21.7251 22.4801 3.8
    endloop
  endfacet
  facet normal -0.406736 -0.913546 0
    outer loop
      vertex 18.052 24.6008 0
      vertex 20 23.7335 2.3
      vertex 18.052 24.6008 2.3
    endloop
  endfacet
  facet normal -0.406736 -0.913546 -0
    outer loop
      vertex 20 23.7335 2.3
      vertex 18.052 24.6008 0
      vertex 20 23.7335 0
    endloop
  endfacet
  facet normal 0 -1 0
    outer loop
      vertex 13.8338 25.0441 0
      vertex 15.9662 25.0441 3.8
      vertex 13.8338 25.0441 3.8
    endloop
  endfacet
  facet normal 0 -1 -0
    outer loop
      vertex 15.9662 25.0441 3.8
      vertex 13.8338 25.0441 0
      vertex 15.9662 25.0441 0
    endloop
  endfacet
  facet normal 0.994522 0.104528 0
    outer loop
      vertex 4.7 14.9 3.8
      vertex 4.83138 13.65 1.5
      vertex 4.7 14.9 0
    endloop
  endfacet
  facet normal 0.994522 0.104528 9.25259e-08
    outer loop
      vertex 4.92289 12.7793 3.8
      vertex 4.83138 13.65 1.5
      vertex 4.7 14.9 3.8
    endloop
  endfacet
  facet normal 0.994522 0.104528 0
    outer loop
      vertex 4.83138 13.65 1.5
      vertex 4.92289 12.7793 3.8
      vertex 4.92289 12.7793 1.5
    endloop
  endfacet
  facet normal 0.994522 0.104528 0
    outer loop
      vertex 4.7 14.9 0
      vertex 4.83138 13.65 1.5
      vertex 4.83138 13.65 0
    endloop
  endfacet
  facet normal 0.866025 -0.5 0
    outer loop
      vertex 5.58184 19.0487 2.3
      vertex 6.64803 20.8954 0
      vertex 6.64803 20.8954 2.3
    endloop
  endfacet
  facet normal 0.866025 -0.5 0
    outer loop
      vertex 6.64803 20.8954 0
      vertex 5.58184 19.0487 2.3
      vertex 5.58184 19.0487 0
    endloop
  endfacet
  facet normal 0.587786 -0.809017 2.213e-07
    outer loop
      vertex 8.07487 22.4801 3.8
      vertex 8.65 22.8979 1.5
      vertex 9.8 23.7335 3.8
    endloop
  endfacet
  facet normal 0.587785 -0.809017 0
    outer loop
      vertex 8.07487 22.4801 0
      vertex 8.65 22.8979 1.5
      vertex 8.07487 22.4801 3.8
    endloop
  endfacet
  facet normal 0.587785 -0.809017 0
    outer loop
      vertex 8.65 22.8979 1.5
      vertex 8.07487 22.4801 0
      vertex 8.65 22.8979 0
    endloop
  endfacet
  facet normal 0.587786 -0.809016 0
    outer loop
      vertex 9.8 23.7335 3.8
      vertex 8.65 22.8979 1.5
      vertex 9.8 23.7335 1.5
    endloop
  endfacet
  facet normal 0.207911 -0.978148 0
    outer loop
      vertex 13.65 25.0051 1.5
      vertex 11.748 24.6008 3.8
      vertex 11.748 24.6008 1.5
    endloop
  endfacet
  facet normal 0.207911 -0.978148 1.42386e-07
    outer loop
      vertex 11.748 24.6008 3.8
      vertex 13.65 25.0051 1.5
      vertex 13.8338 25.0441 3.8
    endloop
  endfacet
  facet normal 0.207913 -0.978147 0
    outer loop
      vertex 13.8338 25.0441 0
      vertex 13.65 25.0051 1.5
      vertex 13.65 25.0051 0
    endloop
  endfacet
  facet normal 0.207913 -0.978147 0
    outer loop
      vertex 13.65 25.0051 1.5
      vertex 13.8338 25.0441 0
      vertex 13.8338 25.0441 3.8
    endloop
  endfacet
  facet normal 0.743145 -0.669131 0
    outer loop
      vertex 6.87726 21.15 2.3
      vertex 8.07487 22.4801 3.8
      vertex 6.87726 21.15 3.8
    endloop
  endfacet
  facet normal 0.743145 -0.669131 0
    outer loop
      vertex 8.07487 22.4801 3.8
      vertex 6.87726 21.15 2.3
      vertex 8.07487 22.4801 0
    endloop
  endfacet
  facet normal 0.743145 -0.669131 0
    outer loop
      vertex 6.64803 20.8954 0
      vertex 6.87726 21.15 2.3
      vertex 6.64803 20.8954 2.3
    endloop
  endfacet
  facet normal 0.743145 -0.669131 2.04687e-08
    outer loop
      vertex 6.87726 21.15 2.3
      vertex 6.64803 20.8954 0
      vertex 8.07487 22.4801 0
    endloop
  endfacet
  facet normal -0.994522 -0.104527 0
    outer loop
      vertex 24.9686 16.15 1.5
      vertex 24.8771 17.0207 3.8
      vertex 24.8771 17.0207 1.5
    endloop
  endfacet
  facet normal -0.994522 -0.104528 -0
    outer loop
      vertex 25.1 14.9 3.8
      vertex 24.9686 16.15 1.5
      vertex 25.1 14.9 0
    endloop
  endfacet
  facet normal -0.994522 -0.104528 3.35588e-07
    outer loop
      vertex 24.9686 16.15 1.5
      vertex 25.1 14.9 3.8
      vertex 24.8771 17.0207 3.8
    endloop
  endfacet
  facet normal -0.994522 -0.104528 0
    outer loop
      vertex 24.9686 16.15 0
      vertex 25.1 14.9 0
      vertex 24.9686 16.15 1.5
    endloop
  endfacet
  facet normal -0.207912 0.978148 0
    outer loop
      vertex 16.15 4.79495 1.5
      vertex 18.052 5.19922 3.8
      vertex 18.052 5.19922 1.5
    endloop
  endfacet
  facet normal -0.207912 0.978148 1.28383e-08
    outer loop
      vertex 18.052 5.19922 3.8
      vertex 16.15 4.79495 1.5
      vertex 15.9662 4.75588 3.8
    endloop
  endfacet
  facet normal -0.207912 0.978148 0
    outer loop
      vertex 15.9662 4.75588 0
      vertex 16.15 4.79495 1.5
      vertex 16.15 4.79495 0
    endloop
  endfacet
  facet normal -0.207912 0.978148 0
    outer loop
      vertex 16.15 4.79495 1.5
      vertex 15.9662 4.75588 0
      vertex 15.9662 4.75588 3.8
    endloop
  endfacet
  facet normal -0.866026 0.499999 0
    outer loop
      vertex 23.152 8.90459 0
      vertex 24.2182 10.7513 2.3
      vertex 24.2182 10.7513 0
    endloop
  endfacet
  facet normal -0.866026 0.499999 0
    outer loop
      vertex 24.2182 10.7513 2.3
      vertex 23.152 8.90459 0
      vertex 23.152 8.90459 2.3
    endloop
  endfacet
  facet normal -0.951056 0.309017 0
    outer loop
      vertex 24.2182 10.7513 0
      vertex 24.8771 12.7793 2.3
      vertex 24.8771 12.7793 0
    endloop
  endfacet
  facet normal -0.951056 0.309017 0
    outer loop
      vertex 24.8771 12.7793 2.3
      vertex 24.2182 10.7513 0
      vertex 24.2182 10.7513 2.3
    endloop
  endfacet
  facet normal -0.406736 0.913546 0
    outer loop
      vertex 20 6.06654 1.5
      vertex 18.052 5.19922 3.8
      vertex 20 6.06654 3.8
    endloop
  endfacet
  facet normal -0.406736 0.913546 0
    outer loop
      vertex 18.052 5.19922 3.8
      vertex 20 6.06654 1.5
      vertex 18.052 5.19922 1.5
    endloop
  endfacet
  facet normal -0.587785 0.809017 -2.36846e-09
    outer loop
      vertex 21.7251 7.31992 3.8
      vertex 21.15 6.90206 1.5
      vertex 20 6.06654 3.8
    endloop
  endfacet
  facet normal -0.587785 0.809017 0
    outer loop
      vertex 21.7251 7.31992 0
      vertex 21.15 6.90206 1.5
      vertex 21.7251 7.31992 3.8
    endloop
  endfacet
  facet normal -0.587785 0.809017 0
    outer loop
      vertex 21.15 6.90206 1.5
      vertex 21.7251 7.31992 0
      vertex 21.15 6.90206 0
    endloop
  endfacet
  facet normal -0.587785 0.809017 0
    outer loop
      vertex 20 6.06654 3.8
      vertex 21.15 6.90206 1.5
      vertex 20 6.06654 1.5
    endloop
  endfacet
  facet normal 0 1 -0
    outer loop
      vertex 15.9662 4.75588 0
      vertex 13.8338 4.75588 3.8
      vertex 15.9662 4.75588 3.8
    endloop
  endfacet
  facet normal 0 1 0
    outer loop
      vertex 13.8338 4.75588 3.8
      vertex 15.9662 4.75588 0
      vertex 13.8338 4.75588 0
    endloop
  endfacet
  facet normal 0.587785 0.809017 0
    outer loop
      vertex 9.8 6.06654 2.3
      vertex 9.8 6.06654 0
      vertex 8.65 6.90206 2.3
    endloop
  endfacet
  facet normal 0.587785 0.809017 -0
    outer loop
      vertex 8.65 6.90206 2.3
      vertex 8.07487 7.31992 3.8
      vertex 8.65 6.90206 3.8
    endloop
  endfacet
  facet normal 0.587785 0.809017 0
    outer loop
      vertex 8.65 6.90206 2.3
      vertex 8.07487 7.31992 0
      vertex 8.07487 7.31992 3.8
    endloop
  endfacet
  facet normal 0.587785 0.809017 2.36846e-09
    outer loop
      vertex 8.07487 7.31992 0
      vertex 8.65 6.90206 2.3
      vertex 9.8 6.06654 0
    endloop
  endfacet
  facet normal 0.866025 0.5 0
    outer loop
      vertex 6.64803 8.90459 3.8
      vertex 5.58184 10.7513 1.5
      vertex 5.58184 10.7513 3.8
    endloop
  endfacet
  facet normal 0.866025 0.5 0
    outer loop
      vertex 5.58184 10.7513 1.5
      vertex 6.64803 8.90459 3.8
      vertex 6.64803 8.90459 1.5
    endloop
  endfacet
  facet normal 0.743145 0.66913 0
    outer loop
      vertex 6.64803 8.90459 3.8
      vertex 6.87726 8.65 1.5
      vertex 6.64803 8.90459 1.5
    endloop
  endfacet
  facet normal 0.743145 0.669131 -5.1158e-08
    outer loop
      vertex 8.07487 7.31992 3.8
      vertex 6.87726 8.65 1.5
      vertex 6.64803 8.90459 3.8
    endloop
  endfacet
  facet normal 0.743145 0.669131 -0
    outer loop
      vertex 8.07487 7.31992 0
      vertex 6.87726 8.65 1.5
      vertex 8.07487 7.31992 3.8
    endloop
  endfacet
  facet normal 0.743145 0.669131 0
    outer loop
      vertex 6.87726 8.65 1.5
      vertex 8.07487 7.31992 0
      vertex 6.87726 8.65 0
    endloop
  endfacet
  facet normal -0.207912 -0.978148 0
    outer loop
      vertex 15.9662 25.0441 3.8
      vertex 16.15 25.0051 2.3
      vertex 16.15 25.0051 3.8
    endloop
  endfacet
  facet normal -0.207912 -0.978148 0
    outer loop
      vertex 15.9662 25.0441 0
      vertex 16.15 25.0051 2.3
      vertex 15.9662 25.0441 3.8
    endloop
  endfacet
  facet normal -0.207911 -0.978148 -4.85802e-08
    outer loop
      vertex 18.052 24.6008 0
      vertex 16.15 25.0051 2.3
      vertex 15.9662 25.0441 0
    endloop
  endfacet
  facet normal -0.207911 -0.978148 0
    outer loop
      vertex 16.15 25.0051 2.3
      vertex 18.052 24.6008 0
      vertex 18.052 24.6008 2.3
    endloop
  endfacet
  facet normal 0.994522 -0.104528 0
    outer loop
      vertex 4.83138 16.15 3.8
      vertex 4.7 14.9 3.8
      vertex 4.83138 16.15 2.3
    endloop
  endfacet
  facet normal 0.994522 -0.104528 0
    outer loop
      vertex 4.83138 16.15 2.3
      vertex 4.92289 17.0207 0
      vertex 4.92289 17.0207 2.3
    endloop
  endfacet
  facet normal 0.994522 -0.104528 0
    outer loop
      vertex 4.7 14.9 0
      vertex 4.83138 16.15 2.3
      vertex 4.7 14.9 3.8
    endloop
  endfacet
  facet normal 0.994522 -0.104528 -9.25259e-08
    outer loop
      vertex 4.83138 16.15 2.3
      vertex 4.7 14.9 0
      vertex 4.92289 17.0207 0
    endloop
  endfacet
  facet normal 0.406737 0.913545 -0
    outer loop
      vertex 11.748 5.19922 0
      vertex 9.8 6.06654 2.3
      vertex 11.748 5.19922 2.3
    endloop
  endfacet
  facet normal 0.406737 0.913545 0
    outer loop
      vertex 9.8 6.06654 2.3
      vertex 11.748 5.19922 0
      vertex 9.8 6.06654 0
    endloop
  endfacet
  facet normal 1 -0 0
    outer loop
      vertex 8.65 0 3.8
      vertex 8.65 6.90206 2.3
      vertex 8.65 6.90206 3.8
    endloop
  endfacet
  facet normal 1 0 0
    outer loop
      vertex 8.65 6.90206 2.3
      vertex 8.65 0 3.8
      vertex 8.65 0 2.3
    endloop
  endfacet
  facet normal -1 0 0
    outer loop
      vertex 13.65 0 2.3
      vertex 13.65 4.79495 3.8
      vertex 13.65 4.79495 2.3
    endloop
  endfacet
  facet normal -1 -0 0
    outer loop
      vertex 13.65 4.79495 3.8
      vertex 13.65 0 2.3
      vertex 13.65 0 3.8
    endloop
  endfacet
  facet normal 0 0 1
    outer loop
      vertex 11.748 5.19922 2.3
      vertex 13.65 0 2.3
      vertex 13.65 4.79495 2.3
    endloop
  endfacet
  facet normal 0 0 1
    outer loop
      vertex 8.65 0 2.3
      vertex 11.748 5.19922 2.3
      vertex 9.8 6.06654 2.3
    endloop
  endfacet
  facet normal 0 0 1
    outer loop
      vertex 8.65 0 2.3
      vertex 9.8 6.06654 2.3
      vertex 8.65 6.90206 2.3
    endloop
  endfacet
  facet normal 0 0 1
    outer loop
      vertex 11.748 5.19922 2.3
      vertex 8.65 0 2.3
      vertex 13.65 0 2.3
    endloop
  endfacet
  facet normal -0 0 1
    outer loop
      vertex 0 21.15 2.3
      vertex 6.64803 20.8954 2.3
      vertex 6.87726 21.15 2.3
    endloop
  endfacet
  facet normal 0 0 1
    outer loop
      vertex 0 21.15 2.3
      vertex 5.58184 19.0487 2.3
      vertex 6.64803 20.8954 2.3
    endloop
  endfacet
  facet normal 0 0 1
    outer loop
      vertex 0 21.15 2.3
      vertex 4.92289 17.0207 2.3
      vertex 5.58184 19.0487 2.3
    endloop
  endfacet
  facet normal 0 0 1
    outer loop
      vertex 0 16.15 2.3
      vertex 4.92289 17.0207 2.3
      vertex 0 21.15 2.3
    endloop
  endfacet
  facet normal 0 0 1
    outer loop
      vertex 4.92289 17.0207 2.3
      vertex 0 16.15 2.3
      vertex 4.83138 16.15 2.3
    endloop
  endfacet
  facet normal 0 1 -0
    outer loop
      vertex 4.83138 16.15 2.3
      vertex 0 16.15 3.8
      vertex 4.83138 16.15 3.8
    endloop
  endfacet
  facet normal 0 1 0
    outer loop
      vertex 0 16.15 3.8
      vertex 4.83138 16.15 2.3
      vertex 0 16.15 2.3
    endloop
  endfacet
  facet normal 0 -1 0
    outer loop
      vertex 0 21.15 2.3
      vertex 6.87726 21.15 3.8
      vertex 0 21.15 3.8
    endloop
  endfacet
  facet normal 0 -1 -0
    outer loop
      vertex 6.87726 21.15 3.8
      vertex 0 21.15 2.3
      vertex 6.87726 21.15 2.3
    endloop
  endfacet
  facet normal 1 -0 0
    outer loop
      vertex 16.15 25.0051 3.8
      vertex 16.15 29.8 2.3
      vertex 16.15 29.8 3.8
    endloop
  endfacet
  facet normal 1 0 0
    outer loop
      vertex 16.15 29.8 2.3
      vertex 16.15 25.0051 3.8
      vertex 16.15 25.0051 2.3
    endloop
  endfacet
  facet normal -1 0 0
    outer loop
      vertex 21.15 22.8979 2.3
      vertex 21.15 29.8 3.8
      vertex 21.15 29.8 2.3
    endloop
  endfacet
  facet normal -1 -0 0
    outer loop
      vertex 21.15 29.8 3.8
      vertex 21.15 22.8979 2.3
      vertex 21.15 22.8979 3.8
    endloop
  endfacet
  facet normal 0 0 1
    outer loop
      vertex 21.15 29.8 2.3
      vertex 20 23.7335 2.3
      vertex 21.15 22.8979 2.3
    endloop
  endfacet
  facet normal 0 0 1
    outer loop
      vertex 21.15 29.8 2.3
      vertex 18.052 24.6008 2.3
      vertex 20 23.7335 2.3
    endloop
  endfacet
  facet normal -0 0 1
    outer loop
      vertex 16.15 29.8 2.3
      vertex 18.052 24.6008 2.3
      vertex 21.15 29.8 2.3
    endloop
  endfacet
  facet normal 0 0 1
    outer loop
      vertex 18.052 24.6008 2.3
      vertex 16.15 29.8 2.3
      vertex 16.15 25.0051 2.3
    endloop
  endfacet
  facet normal 0 -1 0
    outer loop
      vertex 24.9686 13.65 2.3
      vertex 29.8 13.65 3.8
      vertex 24.9686 13.65 3.8
    endloop
  endfacet
  facet normal 0 -1 -0
    outer loop
      vertex 29.8 13.65 3.8
      vertex 24.9686 13.65 2.3
      vertex 29.8 13.65 2.3
    endloop
  endfacet
  facet normal 0 0 1
    outer loop
      vertex 24.8771 12.7793 2.3
      vertex 29.8 13.65 2.3
      vertex 24.9686 13.65 2.3
    endloop
  endfacet
  facet normal 0 0 1
    outer loop
      vertex 29.8 13.65 2.3
      vertex 24.8771 12.7793 2.3
      vertex 29.8 8.65 2.3
    endloop
  endfacet
  facet normal -0 0 1
    outer loop
      vertex 24.2182 10.7513 2.3
      vertex 29.8 8.65 2.3
      vertex 24.8771 12.7793 2.3
    endloop
  endfacet
  facet normal -0 0 1
    outer loop
      vertex 23.152 8.90459 2.3
      vertex 29.8 8.65 2.3
      vertex 24.2182 10.7513 2.3
    endloop
  endfacet
  facet normal 0 0 1
    outer loop
      vertex 29.8 8.65 2.3
      vertex 23.152 8.90459 2.3
      vertex 22.9227 8.65 2.3
    endloop
  endfacet
  facet normal 0 1 -0
    outer loop
      vertex 29.8 8.65 2.3
      vertex 22.9227 8.65 3.8
      vertex 29.8 8.65 3.8
    endloop
  endfacet
  facet normal 0 1 0
    outer loop
      vertex 22.9227 8.65 3.8
      vertex 29.8 8.65 2.3
      vertex 22.9227 8.65 2.3
    endloop
  endfacet
  facet normal 1 -0 0
    outer loop
      vertex 16.15 0 1.5
      vertex 16.15 4.79495 0
      vertex 16.15 4.79495 1.5
    endloop
  endfacet
  facet normal 1 0 0
    outer loop
      vertex 16.15 4.79495 0
      vertex 16.15 0 1.5
      vertex 16.15 0 0
    endloop
  endfacet
  facet normal 0 0 -1
    outer loop
      vertex 21.15 0 1.5
      vertex 20 6.06654 1.5
      vertex 21.15 6.90206 1.5
    endloop
  endfacet
  facet normal 0 0 -1
    outer loop
      vertex 21.15 0 1.5
      vertex 18.052 5.19922 1.5
      vertex 20 6.06654 1.5
    endloop
  endfacet
  facet normal 0 0 -1
    outer loop
      vertex 16.15 0 1.5
      vertex 18.052 5.19922 1.5
      vertex 21.15 0 1.5
    endloop
  endfacet
  facet normal 0 0 -1
    outer loop
      vertex 18.052 5.19922 1.5
      vertex 16.15 0 1.5
      vertex 16.15 4.79495 1.5
    endloop
  endfacet
  facet normal -1 0 0
    outer loop
      vertex 21.15 0 0
      vertex 21.15 6.90206 1.5
      vertex 21.15 6.90206 0
    endloop
  endfacet
  facet normal -1 -0 0
    outer loop
      vertex 21.15 6.90206 1.5
      vertex 21.15 0 0
      vertex 21.15 0 1.5
    endloop
  endfacet
  facet normal 0 0 -1
    outer loop
      vertex 0 8.65 1.5
      vertex 6.64803 8.90459 1.5
      vertex 6.87726 8.65 1.5
    endloop
  endfacet
  facet normal 0 0 -1
    outer loop
      vertex 0 8.65 1.5
      vertex 5.58184 10.7513 1.5
      vertex 6.64803 8.90459 1.5
    endloop
  endfacet
  facet normal 0 0 -1
    outer loop
      vertex 0 8.65 1.5
      vertex 4.92289 12.7793 1.5
      vertex 5.58184 10.7513 1.5
    endloop
  endfacet
  facet normal 0 0 -1
    outer loop
      vertex 0 13.65 1.5
      vertex 4.92289 12.7793 1.5
      vertex 0 8.65 1.5
    endloop
  endfacet
  facet normal 0 0 -1
    outer loop
      vertex 4.92289 12.7793 1.5
      vertex 0 13.65 1.5
      vertex 4.83138 13.65 1.5
    endloop
  endfacet
  facet normal 0 -1 0
    outer loop
      vertex 0 13.65 0
      vertex 4.83138 13.65 1.5
      vertex 0 13.65 1.5
    endloop
  endfacet
  facet normal 0 -1 -0
    outer loop
      vertex 4.83138 13.65 1.5
      vertex 0 13.65 0
      vertex 4.83138 13.65 0
    endloop
  endfacet
  facet normal 0 1 -0
    outer loop
      vertex 6.87726 8.65 0
      vertex 0 8.65 1.5
      vertex 6.87726 8.65 1.5
    endloop
  endfacet
  facet normal 0 1 0
    outer loop
      vertex 0 8.65 1.5
      vertex 6.87726 8.65 0
      vertex 0 8.65 0
    endloop
  endfacet
  facet normal 1 -0 0
    outer loop
      vertex 8.65 22.8979 1.5
      vertex 8.65 29.8 0
      vertex 8.65 29.8 1.5
    endloop
  endfacet
  facet normal 1 0 0
    outer loop
      vertex 8.65 29.8 0
      vertex 8.65 22.8979 1.5
      vertex 8.65 22.8979 0
    endloop
  endfacet
  facet normal 0 0 -1
    outer loop
      vertex 11.748 24.6008 1.5
      vertex 13.65 29.8 1.5
      vertex 13.65 25.0051 1.5
    endloop
  endfacet
  facet normal 0 0 -1
    outer loop
      vertex 8.65 29.8 1.5
      vertex 11.748 24.6008 1.5
      vertex 9.8 23.7335 1.5
    endloop
  endfacet
  facet normal 0 0 -1
    outer loop
      vertex 8.65 29.8 1.5
      vertex 9.8 23.7335 1.5
      vertex 8.65 22.8979 1.5
    endloop
  endfacet
  facet normal 0 0 -1
    outer loop
      vertex 11.748 24.6008 1.5
      vertex 8.65 29.8 1.5
      vertex 13.65 29.8 1.5
    endloop
  endfacet
  facet normal -1 0 0
    outer loop
      vertex 13.65 25.0051 0
      vertex 13.65 29.8 1.5
      vertex 13.65 29.8 0
    endloop
  endfacet
  facet normal -1 -0 0
    outer loop
      vertex 13.65 29.8 1.5
      vertex 13.65 25.0051 0
      vertex 13.65 25.0051 1.5
    endloop
  endfacet
  facet normal 0 0 -1
    outer loop
      vertex 24.8771 17.0207 1.5
      vertex 29.8 16.15 1.5
      vertex 24.9686 16.15 1.5
    endloop
  endfacet
  facet normal 0 0 -1
    outer loop
      vertex 29.8 16.15 1.5
      vertex 24.8771 17.0207 1.5
      vertex 29.8 21.15 1.5
    endloop
  endfacet
  facet normal 0 0 -1
    outer loop
      vertex 24.2182 19.0487 1.5
      vertex 29.8 21.15 1.5
      vertex 24.8771 17.0207 1.5
    endloop
  endfacet
  facet normal 0 0 -1
    outer loop
      vertex 23.152 20.8954 1.5
      vertex 29.8 21.15 1.5
      vertex 24.2182 19.0487 1.5
    endloop
  endfacet
  facet normal -0 0 -1
    outer loop
      vertex 29.8 21.15 1.5
      vertex 23.152 20.8954 1.5
      vertex 22.9227 21.15 1.5
    endloop
  endfacet
  facet normal 0 1 -0
    outer loop
      vertex 29.8 16.15 0
      vertex 24.9686 16.15 1.5
      vertex 29.8 16.15 1.5
    endloop
  endfacet
  facet normal 0 1 0
    outer loop
      vertex 24.9686 16.15 1.5
      vertex 29.8 16.15 0
      vertex 24.9686 16.15 0
    endloop
  endfacet
  facet normal 0 -1 0
    outer loop
      vertex 22.9227 21.15 0
      vertex 29.8 21.15 1.5
      vertex 22.9227 21.15 1.5
    endloop
  endfacet
  facet normal 0 -1 -0
    outer loop
      vertex 29.8 21.15 1.5
      vertex 22.9227 21.15 0
      vertex 29.8 21.15 0
    endloop
  endfacet
endsolid OpenSCAD_Model
